<svg class="rich-terminal" viewBox="0 0 1238 733.1999999999999" xmlns="http://www.w3.org/2000/svg">
    <!-- Generated with Rich https://www.textualize.io -->
    <style>

    @font-face {
        font-family: "Fira Code";
        src: local("FiraCode-Regular"),
                url("https://cdnjs.cloudflare.com/ajax/libs/firacode/6.2.0/woff2/FiraCode-Regular.woff2") format("woff2"),
                url("https://cdnjs.cloudflare.com/ajax/libs/firacode/6.2.0/woff/FiraCode-Regular.woff") format("woff");
        font-style: normal;
        font-weight: 400;
    }
    @font-face {
        font-family: "Fira Code";
        src: local("FiraCode-Bold"),
                url("https://cdnjs.cloudflare.com/ajax/libs/firacode/6.2.0/woff2/FiraCode-Bold.woff2") format("woff2"),
                url("https://cdnjs.cloudflare.com/ajax/libs/firacode/6.2.0/woff/FiraCode-Bold.woff") format("woff");
        font-style: bold;
        font-weight: 700;
    }

    .terminal-3861542783-matrix {
        font-family: Fira Code, monospace;
        font-size: 20px;
        line-height: 24.4px;
        font-variant-east-asian: full-width;
    }

    .terminal-3861542783-title {
        font-size: 18px;
        font-weight: bold;
        font-family: arial;
    }

    .terminal-3861542783-r1 { fill: #c5c8c6 }
.terminal-3861542783-r2 { fill: #e0e0e0 }
.terminal-3861542783-r3 { fill: #e0e0e0;font-weight: bold }
.terminal-3861542783-r4 { fill: #ddedf9;font-weight: bold }
.terminal-3861542783-r5 { fill: #c4c5b5 }
.terminal-3861542783-r6 { fill: #1a1a1a }
.terminal-3861542783-r7 { fill: #ffa62b;font-weight: bold }
.terminal-3861542783-r8 { fill: #495259 }
    </style>

    <defs>
    <clipPath id="terminal-3861542783-clip-terminal">
      <rect x="0" y="0" width="1219.0" height="682.1999999999999" />
    </clipPath>
    <clipPath id="terminal-3861542783-line-0">
    <rect x="0" y="1.5" width="1220" height="24.65"/>
            </clipPath>
<clipPath id="terminal-3861542783-line-1">
    <rect x="0" y="25.9" width="1220" height="24.65"/>
            </clipPath>
<clipPath id="terminal-3861542783-line-2">
    <rect x="0" y="50.3" width="1220" height="24.65"/>
            </clipPath>
<clipPath id="terminal-3861542783-line-3">
    <rect x="0" y="74.7" width="1220" height="24.65"/>
            </clipPath>
<clipPath id="terminal-3861542783-line-4">
    <rect x="0" y="99.1" width="1220" height="24.65"/>
            </clipPath>
<clipPath id="terminal-3861542783-line-5">
    <rect x="0" y="123.5" width="1220" height="24.65"/>
            </clipPath>
<clipPath id="terminal-3861542783-line-6">
    <rect x="0" y="147.9" width="1220" height="24.65"/>
            </clipPath>
<clipPath id="terminal-3861542783-line-7">
    <rect x="0" y="172.3" width="1220" height="24.65"/>
            </clipPath>
<clipPath id="terminal-3861542783-line-8">
    <rect x="0" y="196.7" width="1220" height="24.65"/>
            </clipPath>
<clipPath id="terminal-3861542783-line-9">
    <rect x="0" y="221.1" width="1220" height="24.65"/>
            </clipPath>
<clipPath id="terminal-3861542783-line-10">
    <rect x="0" y="245.5" width="1220" height="24.65"/>
            </clipPath>
<clipPath id="terminal-3861542783-line-11">
    <rect x="0" y="269.9" width="1220" height="24.65"/>
            </clipPath>
<clipPath id="terminal-3861542783-line-12">
    <rect x="0" y="294.3" width="1220" height="24.65"/>
            </clipPath>
<clipPath id="terminal-3861542783-line-13">
    <rect x="0" y="318.7" width="1220" height="24.65"/>
            </clipPath>
<clipPath id="terminal-3861542783-line-14">
    <rect x="0" y="343.1" width="1220" height="24.65"/>
            </clipPath>
<clipPath id="terminal-3861542783-line-15">
    <rect x="0" y="367.5" width="1220" height="24.65"/>
            </clipPath>
<clipPath id="terminal-3861542783-line-16">
    <rect x="0" y="391.9" width="1220" height="24.65"/>
            </clipPath>
<clipPath id="terminal-3861542783-line-17">
    <rect x="0" y="416.3" width="1220" height="24.65"/>
            </clipPath>
<clipPath id="terminal-3861542783-line-18">
    <rect x="0" y="440.7" width="1220" height="24.65"/>
            </clipPath>
<clipPath id="terminal-3861542783-line-19">
    <rect x="0" y="465.1" width="1220" height="24.65"/>
            </clipPath>
<clipPath id="terminal-3861542783-line-20">
    <rect x="0" y="489.5" width="1220" height="24.65"/>
            </clipPath>
<clipPath id="terminal-3861542783-line-21">
    <rect x="0" y="513.9" width="1220" height="24.65"/>
            </clipPath>
<clipPath id="terminal-3861542783-line-22">
    <rect x="0" y="538.3" width="1220" height="24.65"/>
            </clipPath>
<clipPath id="terminal-3861542783-line-23">
    <rect x="0" y="562.7" width="1220" height="24.65"/>
            </clipPath>
<clipPath id="terminal-3861542783-line-24">
    <rect x="0" y="587.1" width="1220" height="24.65"/>
            </clipPath>
<clipPath id="terminal-3861542783-line-25">
    <rect x="0" y="611.5" width="1220" height="24.65"/>
            </clipPath>
<clipPath id="terminal-3861542783-line-26">
    <rect x="0" y="635.9" width="1220" height="24.65"/>
            </clipPath>
    </defs>

    <rect fill="#292929" stroke="rgba(255,255,255,0.35)" stroke-width="1" x="1" y="1" width="1236" height="731.2" rx="8"/><text class="terminal-3861542783-title" fill="#c5c8c6" text-anchor="middle" x="618" y="27">finmint&#160;—&#160;Labels</text>
            <g transform="translate(26,22)">
            <circle cx="0" cy="0" r="7" fill="#ff5f57"/>
            <circle cx="22" cy="0" r="7" fill="#febc2e"/>
            <circle cx="44" cy="0" r="7" fill="#28c840"/>
            </g>
        
    <g transform="translate(9, 41)" clip-path="url(#terminal-3861542783-clip-terminal)">
    <rect fill="#242f38" x="0" y="1.5" width="12.2" height="24.65" shape-rendering="crispEdges"/><rect fill="#242f38" x="12.2" y="1.5" width="12.2" height="24.65" shape-rendering="crispEdges"/><rect fill="#242f38" x="24.4" y="1.5" width="61" height="24.65" shape-rendering="crispEdges"/><rect fill="#242f38" x="85.4" y="1.5" width="12.2" height="24.65" shape-rendering="crispEdges"/><rect fill="#242f38" x="97.6" y="1.5" width="244" height="24.65" shape-rendering="crispEdges"/><rect fill="#242f38" x="341.6" y="1.5" width="500.2" height="24.65" shape-rendering="crispEdges"/><rect fill="#242f38" x="841.8" y="1.5" width="256.2" height="24.65" shape-rendering="crispEdges"/><rect fill="#242f38" x="1098" y="1.5" width="12.2" height="24.65" shape-rendering="crispEdges"/><rect fill="#242f38" x="1110.2" y="1.5" width="0" height="24.65" shape-rendering="crispEdges"/><rect fill="#242f38" x="1110.2" y="1.5" width="97.6" height="24.65" shape-rendering="crispEdges"/><rect fill="#242f38" x="1207.8" y="1.5" width="12.2" height="24.65" shape-rendering="crispEdges"/><rect fill="#2d3740" x="0" y="25.9" width="73.2" height="24.65" shape-rendering="crispEdges"/><rect fill="#2d3740" x="73.2" y="25.9" width="231.8" height="24.65" shape-rendering="crispEdges"/><rect fill="#2d3740" x="305" y="25.9" width="134.2" height="24.65" shape-rendering="crispEdges"/><rect fill="#2d3740" x="439.2" y="25.9" width="170.8" height="24.65" shape-rendering="crispEdges"/><rect fill="#2d3740" x="610" y="25.9" width="610" height="24.65" shape-rendering="crispEdges"/><rect fill="#0178d4" x="0" y="50.3" width="73.2" height="24.65" shape-rendering="crispEdges"/><rect fill="#0178d4" x="73.2" y="50.3" width="12.2" height="24.65" shape-rendering="crispEdges"/><rect fill="#e74c3c" x="85.4" y="50.3" width="146.4" height="24.65" shape-rendering="crispEdges"/><rect fill="#0178d4" x="231.8" y="50.3" width="73.2" height="24.65" shape-rendering="crispEdges"/><rect fill="#0178d4" x="305" y="50.3" width="12.2" height="24.65" shape-rendering="crispEdges"/><rect fill="#e74c3c" x="317.2" y="50.3" width="109.8" height="24.65" shape-rendering="crispEdges"/><rect fill="#0178d4" x="427" y="50.3" width="12.2" height="24.65" shape-rendering="crispEdges"/><rect fill="#0178d4" x="439.2" y="50.3" width="170.8" height="24.65" shape-rendering="crispEdges"/><rect fill="#0178d4" x="610" y="50.3" width="610" height="24.65" shape-rendering="crispEdges"/><rect fill="#272727" x="0" y="74.7" width="73.2" height="24.65" shape-rendering="crispEdges"/><rect fill="#272727" x="73.2" y="74.7" width="12.2" height="24.65" shape-rendering="crispEdges"/><rect fill="#d35400" x="85.4" y="74.7" width="183" height="24.65" shape-rendering="crispEdges"/><rect fill="#272727" x="268.4" y="74.7" width="36.6" height="24.65" shape-rendering="crispEdges"/><rect fill="#272727" x="305" y="74.7" width="12.2" height="24.65" shape-rendering="crispEdges"/><rect fill="#d35400" x="317.2" y="74.7" width="109.8" height="24.65" shape-rendering="crispEdges"/><rect fill="#272727" x="427" y="74.7" width="12.2" height="24.65" shape-rendering="crispEdges"/><rect fill="#272727" x="439.2" y="74.7" width="170.8" height="24.65" shape-rendering="crispEdges"/><rect fill="#272727" x="610" y="74.7" width="610" height="24.65" shape-rendering="crispEdges"/><rect fill="#272727" x="0" y="99.1" width="73.2" height="24.65" shape-rendering="crispEdges"/><rect fill="#272727" x="73.2" y="99.1" width="12.2" height="24.65" shape-rendering="crispEdges"/><rect fill="#95a5a6" x="85.4" y="99.1" width="207.4" height="24.65" shape-rendering="crispEdges"/><rect fill="#272727" x="292.8" y="99.1" width="12.2" height="24.65" shape-rendering="crispEdges"/><rect fill="#272727" x="305" y="99.1" width="12.2" height="24.65" shape-rendering="crispEdges"/><rect fill="#95a5a6" x="317.2" y="99.1" width="109.8" height="24.65" shape-rendering="crispEdges"/><rect fill="#272727" x="427" y="99.1" width="12.2" height="24.65" shape-rendering="crispEdges"/><rect fill="#272727" x="439.2" y="99.1" width="170.8" height="24.65" shape-rendering="crispEdges"/><rect fill="#272727" x="610" y="99.1" width="610" height="24.65" shape-rendering="crispEdges"/><rect fill="#272727" x="0" y="123.5" width="73.2" height="24.65" shape-rendering="crispEdges"/><rect fill="#272727" x="73.2" y="123.5" width="12.2" height="24.65" shape-rendering="crispEdges"/><rect fill="#2ecc71" x="85.4" y="123.5" width="134.2" height="24.65" shape-rendering="crispEdges"/><rect fill="#272727" x="219.6" y="123.5" width="85.4" height="24.65" shape-rendering="crispEdges"/><rect fill="#272727" x="305" y="123.5" width="12.2" height="24.65" shape-rendering="crispEdges"/><rect fill="#2ecc71" x="317.2" y="123.5" width="109.8" height="24.65" shape-rendering="crispEdges"/><rect fill="#272727" x="427" y="123.5" width="12.2" height="24.65" shape-rendering="crispEdges"/><rect fill="#272727" x="439.2" y="123.5" width="170.8" height="24.65" shape-rendering="crispEdges"/><rect fill="#272727" x="610" y="123.5" width="610" height="24.65" shape-rendering="crispEdges"/><rect fill="#272727" x="0" y="147.9" width="73.2" height="24.65" shape-rendering="crispEdges"/><rect fill="#272727" x="73.2" y="147.9" width="12.2" height="24.65" shape-rendering="crispEdges"/><rect fill="#2980b9" x="85.4" y="147.9" width="97.6" height="24.65" shape-rendering="crispEdges"/><rect fill="#272727" x="183" y="147.9" width="122" height="24.65" shape-rendering="crispEdges"/><rect fill="#272727" x="305" y="147.9" width="12.2" height="24.65" shape-rendering="crispEdges"/><rect fill="#2980b9" x="317.2" y="147.9" width="109.8" height="24.65" shape-rendering="crispEdges"/><rect fill="#272727" x="427" y="147.9" width="12.2" height="24.65" shape-rendering="crispEdges"/><rect fill="#272727" x="439.2" y="147.9" width="170.8" height="24.65" shape-rendering="crispEdges"/><rect fill="#272727" x="610" y="147.9" width="610" height="24.65" shape-rendering="crispEdges"/><rect fill="#272727" x="0" y="172.3" width="73.2" height="24.65" shape-rendering="crispEdges"/><rect fill="#272727" x="73.2" y="172.3" width="12.2" height="24.65" shape-rendering="crispEdges"/><rect fill="#9b59b6" x="85.4" y="172.3" width="109.8" height="24.65" shape-rendering="crispEdges"/><rect fill="#272727" x="195.2" y="172.3" width="109.8" height="24.65" shape-rendering="crispEdges"/><rect fill="#272727" x="305" y="172.3" width="12.2" height="24.65" shape-rendering="crispEdges"/><rect fill="#9b59b6" x="317.2" y="172.3" width="109.8" height="24.65" shape-rendering="crispEdges"/><rect fill="#272727" x="427" y="172.3" width="12.2" height="24.65" shape-rendering="crispEdges"/><rect fill="#272727" x="439.2" y="172.3" width="170.8" height="24.65" shape-rendering="crispEdges"/><rect fill="#272727" x="610" y="172.3" width="610" height="24.65" shape-rendering="crispEdges"/><rect fill="#272727" x="0" y="196.7" width="73.2" height="24.65" shape-rendering="crispEdges"/><rect fill="#272727" x="73.2" y="196.7" width="12.2" height="24.65" shape-rendering="crispEdges"/><rect fill="#27ae60" x="85.4" y="196.7" width="97.6" height="24.65" shape-rendering="crispEdges"/><rect fill="#272727" x="183" y="196.7" width="122" height="24.65" shape-rendering="crispEdges"/><rect fill="#272727" x="305" y="196.7" width="12.2" height="24.65" shape-rendering="crispEdges"/><rect fill="#27ae60" x="317.2" y="196.7" width="109.8" height="24.65" shape-rendering="crispEdges"/><rect fill="#272727" x="427" y="196.7" width="12.2" height="24.65" shape-rendering="crispEdges"/><rect fill="#272727" x="439.2" y="196.7" width="170.8" height="24.65" shape-rendering="crispEdges"/><rect fill="#272727" x="610" y="196.7" width="610" height="24.65" shape-rendering="crispEdges"/><rect fill="#272727" x="0" y="221.1" width="73.2" height="24.65" shape-rendering="crispEdges"/><rect fill="#272727" x="73.2" y="221.1" width="12.2" height="24.65" shape-rendering="crispEdges"/><rect fill="#c0392b" x="85.4" y="221.1" width="183" height="24.65" shape-rendering="crispEdges"/><rect fill="#272727" x="268.4" y="221.1" width="36.6" height="24.65" shape-rendering="crispEdges"/><rect fill="#272727" x="305" y="221.1" width="12.2" height="24.65" shape-rendering="crispEdges"/><rect fill="#c0392b" x="317.2" y="221.1" width="109.8" height="24.65" shape-rendering="crispEdges"/><rect fill="#272727" x="427" y="221.1" width="12.2" height="24.65" shape-rendering="crispEdges"/><rect fill="#272727" x="439.2" y="221.1" width="170.8" height="24.65" shape-rendering="crispEdges"/><rect fill="#272727" x="610" y="221.1" width="610" height="24.65" shape-rendering="crispEdges"/><rect fill="#272727" x="0" y="245.5" width="73.2" height="24.65" shape-rendering="crispEdges"/><rect fill="#272727" x="73.2" y="245.5" width="12.2" height="24.65" shape-rendering="crispEdges"/><rect fill="#e67e22" x="85.4" y="245.5" width="122" height="24.65" shape-rendering="crispEdges"/><rect fill="#272727" x="207.4" y="245.5" width="97.6" height="24.65" shape-rendering="crispEdges"/><rect fill="#272727" x="305" y="245.5" width="12.2" height="24.65" shape-rendering="crispEdges"/><rect fill="#e67e22" x="317.2" y="245.5" width="109.8" height="24.65" shape-rendering="crispEdges"/><rect fill="#272727" x="427" y="245.5" width="12.2" height="24.65" shape-rendering="crispEdges"/><rect fill="#272727" x="439.2" y="245.5" width="170.8" height="24.65" shape-rendering="crispEdges"/><rect fill="#272727" x="610" y="245.5" width="610" height="24.65" shape-rendering="crispEdges"/><rect fill="#272727" x="0" y="269.9" width="73.2" height="24.65" shape-rendering="crispEdges"/><rect fill="#272727" x="73.2" y="269.9" width="12.2" height="24.65" shape-rendering="crispEdges"/><rect fill="#1abc9c" x="85.4" y="269.9" width="183" height="24.65" shape-rendering="crispEdges"/><rect fill="#272727" x="268.4" y="269.9" width="36.6" height="24.65" shape-rendering="crispEdges"/><rect fill="#272727" x="305" y="269.9" width="12.2" height="24.65" shape-rendering="crispEdges"/><rect fill="#1abc9c" x="317.2" y="269.9" width="109.8" height="24.65" shape-rendering="crispEdges"/><rect fill="#272727" x="427" y="269.9" width="12.2" height="24.65" shape-rendering="crispEdges"/><rect fill="#272727" x="439.2" y="269.9" width="170.8" height="24.65" shape-rendering="crispEdges"/><rect fill="#272727" x="610" y="269.9" width="610" height="24.65" shape-rendering="crispEdges"/><rect fill="#272727" x="0" y="294.3" width="73.2" height="24.65" shape-rendering="crispEdges"/><rect fill="#272727" x="73.2" y="294.3" width="12.2" height="24.65" shape-rendering="crispEdges"/><rect fill="#7f8c8d" x="85.4" y="294.3" width="122" height="24.65" shape-rendering="crispEdges"/><rect fill="#272727" x="207.4" y="294.3" width="97.6" height="24.65" shape-rendering="crispEdges"/><rect fill="#272727" x="305" y="294.3" width="12.2" height="24.65" shape-rendering="crispEdges"/><rect fill="#7f8c8d" x="317.2" y="294.3" width="109.8" height="24.65" shape-rendering="crispEdges"/><rect fill="#272727" x="427" y="294.3" width="12.2" height="24.65" shape-rendering="crispEdges"/><rect fill="#272727" x="439.2" y="294.3" width="170.8" height="24.65" shape-rendering="crispEdges"/><rect fill="#272727" x="610" y="294.3" width="610" height="24.65" shape-rendering="crispEdges"/><rect fill="#272727" x="0" y="318.7" width="73.2" height="24.65" shape-rendering="crispEdges"/><rect fill="#272727" x="73.2" y="318.7" width="12.2" height="24.65" shape-rendering="crispEdges"/><rect fill="#3498db" x="85.4" y="318.7" width="134.2" height="24.65" shape-rendering="crispEdges"/><rect fill="#272727" x="219.6" y="318.7" width="85.4" height="24.65" shape-rendering="crispEdges"/><rect fill="#272727" x="305" y="318.7" width="12.2" height="24.65" shape-rendering="crispEdges"/><rect fill="#3498db" x="317.2" y="318.7" width="109.8" height="24.65" shape-rendering="crispEdges"/><rect fill="#272727" x="427" y="318.7" width="12.2" height="24.65" shape-rendering="crispEdges"/><rect fill="#272727" x="439.2" y="318.7" width="170.8" height="24.65" shape-rendering="crispEdges"/><rect fill="#272727" x="610" y="318.7" width="610" height="24.65" shape-rendering="crispEdges"/><rect fill="#272727" x="0" y="343.1" width="73.2" height="24.65" shape-rendering="crispEdges"/><rect fill="#272727" x="73.2" y="343.1" width="12.2" height="24.65" shape-rendering="crispEdges"/><rect fill="#8e44ad" x="85.4" y="343.1" width="97.6" height="24.65" shape-rendering="crispEdges"/><rect fill="#272727" x="183" y="343.1" width="122" height="24.65" shape-rendering="crispEdges"/><rect fill="#272727" x="305" y="343.1" width="12.2" height="24.65" shape-rendering="crispEdges"/><rect fill="#8e44ad" x="317.2" y="343.1" width="109.8" height="24.65" shape-rendering="crispEdges"/><rect fill="#272727" x="427" y="343.1" width="12.2" height="24.65" shape-rendering="crispEdges"/><rect fill="#272727" x="439.2" y="343.1" width="170.8" height="24.65" shape-rendering="crispEdges"/><rect fill="#272727" x="610" y="343.1" width="610" height="24.65" shape-rendering="crispEdges"/><rect fill="#272727" x="0" y="367.5" width="73.2" height="24.65" shape-rendering="crispEdges"/><rect fill="#272727" x="73.2" y="367.5" width="12.2" height="24.65" shape-rendering="crispEdges"/><rect fill="#f39c12" x="85.4" y="367.5" width="134.2" height="24.65" shape-rendering="crispEdges"/><rect fill="#272727" x="219.6" y="367.5" width="85.4" height="24.65" shape-rendering="crispEdges"/><rect fill="#272727" x="305" y="367.5" width="12.2" height="24.65" shape-rendering="crispEdges"/><rect fill="#f39c12" x="317.2" y="367.5" width="109.8" height="24.65" shape-rendering="crispEdges"/><rect fill="#272727" x="427" y="367.5" width="12.2" height="24.65" shape-rendering="crispEdges"/><rect fill="#272727" x="439.2" y="367.5" width="170.8" height="24.65" shape-rendering="crispEdges"/><rect fill="#272727" x="610" y="367.5" width="610" height="24.65" shape-rendering="crispEdges"/><rect fill="#121212" x="0" y="391.9" width="1220" height="24.65" shape-rendering="crispEdges"/><rect fill="#121212" x="0" y="416.3" width="1220" height="24.65" shape-rendering="crispEdges"/><rect fill="#121212" x="0" y="440.7" width="1220" height="24.65" shape-rendering="crispEdges"/><rect fill="#121212" x="0" y="465.1" width="1220" height="24.65" shape-rendering="crispEdges"/><rect fill="#121212" x="0" y="489.5" width="1220" height="24.65" shape-rendering="crispEdges"/><rect fill="#121212" x="0" y="513.9" width="1220" height="24.65" shape-rendering="crispEdges"/><rect fill="#121212" x="0" y="538.3" width="1220" height="24.65" shape-rendering="crispEdges"/><rect fill="#121212" x="0" y="562.7" width="1220" height="24.65" shape-rendering="crispEdges"/><rect fill="#121212" x="0" y="587.1" width="1220" height="24.65" shape-rendering="crispEdges"/><rect fill="#121212" x="0" y="611.5" width="1220" height="24.65" shape-rendering="crispEdges"/><rect fill="#121212" x="0" y="635.9" width="1220" height="24.65" shape-rendering="crispEdges"/><rect fill="#242f38" x="0" y="660.3" width="36.6" height="24.65" shape-rendering="crispEdges"/><rect fill="#242f38" x="36.6" y="660.3" width="158.6" height="24.65" shape-rendering="crispEdges"/><rect fill="#242f38" x="195.2" y="660.3" width="36.6" height="24.65" shape-rendering="crispEdges"/><rect fill="#242f38" x="231.8" y="660.3" width="61" height="24.65" shape-rendering="crispEdges"/><rect fill="#242f38" x="292.8" y="660.3" width="780.8" height="24.65" shape-rendering="crispEdges"/><rect fill="#242f38" x="1073.6" y="660.3" width="12.2" height="24.65" shape-rendering="crispEdges"/><rect fill="#242f38" x="1085.8" y="660.3" width="24.4" height="24.65" shape-rendering="crispEdges"/><rect fill="#242f38" x="1110.2" y="660.3" width="97.6" height="24.65" shape-rendering="crispEdges"/><rect fill="#242f38" x="1207.8" y="660.3" width="12.2" height="24.65" shape-rendering="crispEdges"/>
    <g class="terminal-3861542783-matrix">
    <text class="terminal-3861542783-r2" x="12.2" y="20" textLength="12.2" clip-path="url(#terminal-3861542783-line-0)">⭘</text><text class="terminal-3861542783-r2" x="341.6" y="20" textLength="500.2" clip-path="url(#terminal-3861542783-line-0)">Finmint&#160;—&#160;Categories&#160;(from&#160;Copilot&#160;Money)</text><text class="terminal-3861542783-r1" x="1220" y="20" textLength="12.2" clip-path="url(#terminal-3861542783-line-0)">
</text><text class="terminal-3861542783-r3" x="0" y="44.4" textLength="73.2" clip-path="url(#terminal-3861542783-line-1)">&#160;Icon&#160;</text><text class="terminal-3861542783-r3" x="73.2" y="44.4" textLength="231.8" clip-path="url(#terminal-3861542783-line-1)">&#160;Category&#160;&#160;&#160;&#160;&#160;&#160;&#160;&#160;&#160;&#160;</text><text class="terminal-3861542783-r3" x="305" y="44.4" textLength="134.2" clip-path="url(#terminal-3861542783-line-1)">&#160;Color&#160;&#160;&#160;&#160;&#160;</text><text class="terminal-3861542783-r3" x="439.2" y="44.4" textLength="170.8" clip-path="url(#terminal-3861542783-line-1)">&#160;Transactions&#160;</text><text class="terminal-3861542783-r1" x="1220" y="44.4" textLength="12.2" clip-path="url(#terminal-3861542783-line-1)">
</text><text class="terminal-3861542783-r4" x="0" y="68.8" textLength="73.2" clip-path="url(#terminal-3861542783-line-2)">&#160;🍽️&#160;&#160;&#160;</text><text class="terminal-3861542783-r4" x="85.4" y="68.8" textLength="146.4" clip-path="url(#terminal-3861542783-line-2)">&#160;Dining&#160;Out&#160;</text><text class="terminal-3861542783-r4" x="317.2" y="68.8" textLength="109.8" clip-path="url(#terminal-3861542783-line-2)">&#160;#e74c3c&#160;</text><text class="terminal-3861542783-r4" x="439.2" y="68.8" textLength="170.8" clip-path="url(#terminal-3861542783-line-2)">&#160;5&#160;&#160;&#160;&#160;&#160;&#160;&#160;&#160;&#160;&#160;&#160;&#160;</text><text class="terminal-3861542783-r1" x="1220" y="68.8" textLength="12.2" clip-path="url(#terminal-3861542783-line-2)">
</text><text class="terminal-3861542783-r2" x="0" y="93.2" textLength="61" clip-path="url(#terminal-3861542783-line-3)">&#160;🎬&#160;&#160;&#160;</text><text class="terminal-3861542783-r5" x="85.4" y="93.2" textLength="183" clip-path="url(#terminal-3861542783-line-3)">&#160;Entertainment&#160;</text><text class="terminal-3861542783-r5" x="317.2" y="93.2" textLength="109.8" clip-path="url(#terminal-3861542783-line-3)">&#160;#d35400&#160;</text><text class="terminal-3861542783-r2" x="439.2" y="93.2" textLength="170.8" clip-path="url(#terminal-3861542783-line-3)">&#160;2&#160;&#160;&#160;&#160;&#160;&#160;&#160;&#160;&#160;&#160;&#160;&#160;</text><text class="terminal-3861542783-r1" x="1220" y="93.2" textLength="12.2" clip-path="url(#terminal-3861542783-line-3)">
</text><text class="terminal-3861542783-r2" x="0" y="117.6" textLength="61" clip-path="url(#terminal-3861542783-line-4)">&#160;🏦&#160;&#160;&#160;</text><text class="terminal-3861542783-r6" x="85.4" y="117.6" textLength="207.4" clip-path="url(#terminal-3861542783-line-4)">&#160;Fees&#160;&amp;&#160;Interest&#160;</text><text class="terminal-3861542783-r6" x="317.2" y="117.6" textLength="109.8" clip-path="url(#terminal-3861542783-line-4)">&#160;#95a5a6&#160;</text><text class="terminal-3861542783-r2" x="439.2" y="117.6" textLength="170.8" clip-path="url(#terminal-3861542783-line-4)">&#160;1&#160;&#160;&#160;&#160;&#160;&#160;&#160;&#160;&#160;&#160;&#160;&#160;</text><text class="terminal-3861542783-r1" x="1220" y="117.6" textLength="12.2" clip-path="url(#terminal-3861542783-line-4)">
</text><text class="terminal-3861542783-r2" x="0" y="142" textLength="61" clip-path="url(#terminal-3861542783-line-5)">&#160;🛒&#160;&#160;&#160;</text><text class="terminal-3861542783-r6" x="85.4" y="142" textLength="134.2" clip-path="url(#terminal-3861542783-line-5)">&#160;Groceries&#160;</text><text class="terminal-3861542783-r6" x="317.2" y="142" textLength="109.8" clip-path="url(#terminal-3861542783-line-5)">&#160;#2ecc71&#160;</text><text class="terminal-3861542783-r2" x="439.2" y="142" textLength="170.8" clip-path="url(#terminal-3861542783-line-5)">&#160;6&#160;&#160;&#160;&#160;&#160;&#160;&#160;&#160;&#160;&#160;&#160;&#160;</text><text class="terminal-3861542783-r1" x="1220" y="142" textLength="12.2" clip-path="url(#terminal-3861542783-line-5)">
</text><text class="terminal-3861542783-r2" x="0" y="166.4" textLength="61" clip-path="url(#terminal-3861542783-line-6)">&#160;💊&#160;&#160;&#160;</text><text class="terminal-3861542783-r5" x="85.4" y="166.4" textLength="97.6" clip-path="url(#terminal-3861542783-line-6)">&#160;Health&#160;</text><text class="terminal-3861542783-r5" x="317.2" y="166.4" textLength="109.8" clip-path="url(#terminal-3861542783-line-6)">&#160;#2980b9&#160;</text><text class="terminal-3861542783-r2" x="439.2" y="166.4" textLength="170.8" clip-path="url(#terminal-3861542783-line-6)">&#160;1&#160;&#160;&#160;&#160;&#160;&#160;&#160;&#160;&#160;&#160;&#160;&#160;</text><text class="terminal-3861542783-r1" x="1220" y="166.4" textLength="12.2" clip-path="url(#terminal-3861542783-line-6)">
</text><text class="terminal-3861542783-r2" x="0" y="190.8" textLength="61" clip-path="url(#terminal-3861542783-line-7)">&#160;🏠&#160;&#160;&#160;</text><text class="terminal-3861542783-r5" x="85.4" y="190.8" textLength="109.8" clip-path="url(#terminal-3861542783-line-7)">&#160;Housing&#160;</text><text class="terminal-3861542783-r5" x="317.2" y="190.8" textLength="109.8" clip-path="url(#terminal-3861542783-line-7)">&#160;#9b59b6&#160;</text><text class="terminal-3861542783-r2" x="439.2" y="190.8" textLength="170.8" clip-path="url(#terminal-3861542783-line-7)">&#160;3&#160;&#160;&#160;&#160;&#160;&#160;&#160;&#160;&#160;&#160;&#160;&#160;</text><text class="terminal-3861542783-r1" x="1220" y="190.8" textLength="12.2" clip-path="url(#terminal-3861542783-line-7)">
</text><text class="terminal-3861542783-r2" x="0" y="215.2" textLength="61" clip-path="url(#terminal-3861542783-line-8)">&#160;💰&#160;&#160;&#160;</text><text class="terminal-3861542783-r6" x="85.4" y="215.2" textLength="97.6" clip-path="url(#terminal-3861542783-line-8)">&#160;Income&#160;</text><text class="terminal-3861542783-r6" x="317.2" y="215.2" textLength="109.8" clip-path="url(#terminal-3861542783-line-8)">&#160;#27ae60&#160;</text><text class="terminal-3861542783-r2" x="439.2" y="215.2" textLength="170.8" clip-path="url(#terminal-3861542783-line-8)">&#160;1&#160;&#160;&#160;&#160;&#160;&#160;&#160;&#160;&#160;&#160;&#160;&#160;</text><text class="terminal-3861542783-r1" x="1220" y="215.2" textLength="12.2" clip-path="url(#terminal-3861542783-line-8)">
</text><text class="terminal-3861542783-r2" x="0" y="239.6" textLength="61" clip-path="url(#terminal-3861542783-line-9)">&#160;💇&#160;&#160;&#160;</text><text class="terminal-3861542783-r5" x="85.4" y="239.6" textLength="183" clip-path="url(#terminal-3861542783-line-9)">&#160;Personal&#160;Care&#160;</text><text class="terminal-3861542783-r5" x="317.2" y="239.6" textLength="109.8" clip-path="url(#terminal-3861542783-line-9)">&#160;#c0392b&#160;</text><text class="terminal-3861542783-r2" x="439.2" y="239.6" textLength="170.8" clip-path="url(#terminal-3861542783-line-9)">&#160;1&#160;&#160;&#160;&#160;&#160;&#160;&#160;&#160;&#160;&#160;&#160;&#160;</text><text class="terminal-3861542783-r1" x="1220" y="239.6" textLength="12.2" clip-path="url(#terminal-3861542783-line-9)">
</text><text class="terminal-3861542783-r2" x="0" y="264" textLength="73.2" clip-path="url(#terminal-3861542783-line-10)">&#160;🛍️&#160;&#160;&#160;</text><text class="terminal-3861542783-r6" x="85.4" y="264" textLength="122" clip-path="url(#terminal-3861542783-line-10)">&#160;Shopping&#160;</text><text class="terminal-3861542783-r6" x="317.2" y="264" textLength="109.8" clip-path="url(#terminal-3861542783-line-10)">&#160;#e67e22&#160;</text><text class="terminal-3861542783-r2" x="439.2" y="264" textLength="170.8" clip-path="url(#terminal-3861542783-line-10)">&#160;2&#160;&#160;&#160;&#160;&#160;&#160;&#160;&#160;&#160;&#160;&#160;&#160;</text><text class="terminal-3861542783-r1" x="1220" y="264" textLength="12.2" clip-path="url(#terminal-3861542783-line-10)">
</text><text class="terminal-3861542783-r2" x="0" y="288.4" textLength="61" clip-path="url(#terminal-3861542783-line-11)">&#160;🔁&#160;&#160;&#160;</text><text class="terminal-3861542783-r6" x="85.4" y="288.4" textLength="183" clip-path="url(#terminal-3861542783-line-11)">&#160;Subscriptions&#160;</text><text class="terminal-3861542783-r6" x="317.2" y="288.4" textLength="109.8" clip-path="url(#terminal-3861542783-line-11)">&#160;#1abc9c&#160;</text><text class="terminal-3861542783-r2" x="439.2" y="288.4" textLength="170.8" clip-path="url(#terminal-3861542783-line-11)">&#160;4&#160;&#160;&#160;&#160;&#160;&#160;&#160;&#160;&#160;&#160;&#160;&#160;</text><text class="terminal-3861542783-r1" x="1220" y="288.4" textLength="12.2" clip-path="url(#terminal-3861542783-line-11)">
</text><text class="terminal-3861542783-r2" x="0" y="312.8" textLength="61" clip-path="url(#terminal-3861542783-line-12)">&#160;🔄&#160;&#160;&#160;</text><text class="terminal-3861542783-r6" x="85.4" y="312.8" textLength="122" clip-path="url(#terminal-3861542783-line-12)">&#160;Transfer&#160;</text><text class="terminal-3861542783-r6" x="317.2" y="312.8" textLength="109.8" clip-path="url(#terminal-3861542783-line-12)">&#160;#7f8c8d&#160;</text><text class="terminal-3861542783-r2" x="439.2" y="312.8" textLength="170.8" clip-path="url(#terminal-3861542783-line-12)">&#160;2&#160;&#160;&#160;&#160;&#160;&#160;&#160;&#160;&#160;&#160;&#160;&#160;</text><text class="terminal-3861542783-r1" x="1220" y="312.8" textLength="12.2" clip-path="url(#terminal-3861542783-line-12)">
</text><text class="terminal-3861542783-r2" x="0" y="337.2" textLength="61" clip-path="url(#terminal-3861542783-line-13)">&#160;🚗&#160;&#160;&#160;</text><text class="terminal-3861542783-r6" x="85.4" y="337.2" textLength="134.2" clip-path="url(#terminal-3861542783-line-13)">&#160;Transport&#160;</text><text class="terminal-3861542783-r6" x="317.2" y="337.2" textLength="109.8" clip-path="url(#terminal-3861542783-line-13)">&#160;#3498db&#160;</text><text class="terminal-3861542783-r2" x="439.2" y="337.2" textLength="170.8" clip-path="url(#terminal-3861542783-line-13)">&#160;4&#160;&#160;&#160;&#160;&#160;&#160;&#160;&#160;&#160;&#160;&#160;&#160;</text><text class="terminal-3861542783-r1" x="1220" y="337.2" textLength="12.2" clip-path="url(#terminal-3861542783-line-13)">
</text><text class="terminal-3861542783-r2" x="0" y="361.6" textLength="73.2" clip-path="url(#terminal-3861542783-line-14)">&#160;✈️&#160;&#160;&#160;</text><text class="terminal-3861542783-r5" x="85.4" y="361.6" textLength="97.6" clip-path="url(#terminal-3861542783-line-14)">&#160;Travel&#160;</text><text class="terminal-3861542783-r5" x="317.2" y="361.6" textLength="109.8" clip-path="url(#terminal-3861542783-line-14)">&#160;#8e44ad&#160;</text><text class="terminal-3861542783-r2" x="439.2" y="361.6" textLength="170.8" clip-path="url(#terminal-3861542783-line-14)">&#160;1&#160;&#160;&#160;&#160;&#160;&#160;&#160;&#160;&#160;&#160;&#160;&#160;</text><text class="terminal-3861542783-r1" x="1220" y="361.6" textLength="12.2" clip-path="url(#terminal-3861542783-line-14)">
</text><text class="terminal-3861542783-r2" x="0" y="386" textLength="61" clip-path="url(#terminal-3861542783-line-15)">&#160;💡&#160;&#160;&#160;</text><text class="terminal-3861542783-r6" x="85.4" y="386" textLength="134.2" clip-path="url(#terminal-3861542783-line-15)">&#160;Utilities&#160;</text><text class="terminal-3861542783-r6" x="317.2" y="386" textLength="109.8" clip-path="url(#terminal-3861542783-line-15)">&#160;#f39c12&#160;</text><text class="terminal-3861542783-r2" x="439.2" y="386" textLength="170.8" clip-path="url(#terminal-3861542783-line-15)">&#160;4&#160;&#160;&#160;&#160;&#160;&#160;&#160;&#160;&#160;&#160;&#160;&#160;</text><text class="terminal-3861542783-r1" x="1220" y="386" textLength="12.2" clip-path="url(#terminal-3861542783-line-15)">
</text><text class="terminal-3861542783-r1" x="1220" y="410.4" textLength="12.2" clip-path="url(#terminal-3861542783-line-16)">
</text><text class="terminal-3861542783-r1" x="1220" y="434.8" textLength="12.2" clip-path="url(#terminal-3861542783-line-17)">
</text><text class="terminal-3861542783-r1" x="1220" y="459.2" textLength="12.2" clip-path="url(#terminal-3861542783-line-18)">
</text><text class="terminal-3861542783-r1" x="1220" y="483.6" textLength="12.2" clip-path="url(#terminal-3861542783-line-19)">
</text><text class="terminal-3861542783-r1" x="1220" y="508" textLength="12.2" clip-path="url(#terminal-3861542783-line-20)">
</text><text class="terminal-3861542783-r1" x="1220" y="532.4" textLength="12.2" clip-path="url(#terminal-3861542783-line-21)">
</text><text class="terminal-3861542783-r1" x="1220" y="556.8" textLength="12.2" clip-path="url(#terminal-3861542783-line-22)">
</text><text class="terminal-3861542783-r1" x="1220" y="581.2" textLength="12.2" clip-path="url(#terminal-3861542783-line-23)">
</text><text class="terminal-3861542783-r1" x="1220" y="605.6" textLength="12.2" clip-path="url(#terminal-3861542783-line-24)">
</text><text class="terminal-3861542783-r1" x="1220" y="630" textLength="12.2" clip-path="url(#terminal-3861542783-line-25)">
</text><text class="terminal-3861542783-r1" x="1220" y="654.4" textLength="12.2" clip-path="url(#terminal-3861542783-line-26)">
</text><text class="terminal-3861542783-r7" x="0" y="678.8" textLength="36.6" clip-path="url(#terminal-3861542783-line-27)">&#160;c&#160;</text><text class="terminal-3861542783-r2" x="36.6" y="678.8" textLength="158.6" clip-path="url(#terminal-3861542783-line-27)">Change&#160;Color&#160;</text><text class="terminal-3861542783-r7" x="195.2" y="678.8" textLength="36.6" clip-path="url(#terminal-3861542783-line-27)">&#160;q&#160;</text><text class="terminal-3861542783-r2" x="231.8" y="678.8" textLength="61" clip-path="url(#terminal-3861542783-line-27)">Quit&#160;</text><text class="terminal-3861542783-r8" x="1073.6" y="678.8" textLength="12.2" clip-path="url(#terminal-3861542783-line-27)">▏</text><text class="terminal-3861542783-r7" x="1085.8" y="678.8" textLength="24.4" clip-path="url(#terminal-3861542783-line-27)">^p</text><text class="terminal-3861542783-r2" x="1110.2" y="678.8" textLength="97.6" clip-path="url(#terminal-3861542783-line-27)">&#160;palette</text>
    </g>
    </g>
</svg>
